<svg width="128" height="92" viewBox="0 0 128 92" fill="none" xmlns="http://www.w3.org/2000/svg">
<path d="M1.32538 81.9844H8.37231V83.3889H1.73606C1.54939 83.3889 1.41561 83.4474 1.33472 83.5645C1.2476 83.6732 1.20404 83.8529 1.20404 84.1037V89.1199H0V83.7651C0 83.1548 0.105782 82.7075 0.317345 82.4233C0.528908 82.1307 0.864921 81.9844 1.32538 81.9844Z" fill="white"/>
<path fill-rule="evenodd" clip-rule="evenodd" d="M20.2713 82.4233C20.4766 82.7075 20.5793 83.1548 20.5793 83.7651V87.3517C20.5793 87.9537 20.4766 88.4009 20.2713 88.6935C20.0597 88.9778 19.7268 89.1199 19.2726 89.1199H12.319C11.8585 89.1199 11.5225 88.9778 11.3109 88.6935C11.1056 88.4009 11.0029 87.9537 11.0029 87.3517V83.7651C11.0029 83.1548 11.1056 82.7075 11.3109 82.4233C11.5225 82.1307 11.8585 81.9844 12.319 81.9844H19.2726C19.7268 81.9844 20.0597 82.1307 20.2713 82.4233ZM19.3846 84.1037C19.3846 83.8529 19.3441 83.6732 19.2632 83.5645C19.1761 83.4474 19.0392 83.3889 18.8526 83.3889H12.7297C12.543 83.3889 12.4092 83.4474 12.3283 83.5645C12.2474 83.6732 12.207 83.8529 12.207 84.1037V87.0006C12.207 87.2597 12.2474 87.4437 12.3283 87.5524C12.4092 87.661 12.543 87.7154 12.7297 87.7154H18.8526C19.0392 87.7154 19.1761 87.661 19.2632 87.5524C19.3441 87.4437 19.3846 87.2597 19.3846 87.0006V84.1037Z" fill="white"/>
<path fill-rule="evenodd" clip-rule="evenodd" d="M32.4714 82.4233C32.683 82.7075 32.7888 83.1548 32.7888 83.7651V87.3517C32.7888 87.9537 32.683 88.4009 32.4714 88.6935C32.2661 88.9778 31.9332 89.1199 31.4727 89.1199H24.5191C24.0649 89.1199 23.732 88.9778 23.5204 88.6935C23.3151 88.4009 23.2124 87.9537 23.2124 87.3517V83.7651C23.2124 83.1548 23.3151 82.7075 23.5204 82.4233C23.732 82.1307 24.0649 81.9844 24.5191 81.9844H31.4727C31.9332 81.9844 32.2661 82.1307 32.4714 82.4233ZM31.5847 84.1037C31.5847 83.8529 31.5443 83.6732 31.4634 83.5645C31.3825 83.4474 31.2487 83.3889 31.062 83.3889H24.9391C24.7462 83.3889 24.6125 83.4474 24.5378 83.5645C24.4569 83.6732 24.4164 83.8529 24.4164 84.1037V87.0006C24.4164 87.2597 24.4569 87.4437 24.5378 87.5524C24.6125 87.661 24.7462 87.7154 24.9391 87.7154H31.062C31.2487 87.7154 31.3825 87.661 31.4634 87.5524C31.5443 87.4437 31.5847 87.2597 31.5847 87.0006V84.1037Z" fill="white"/>
<path d="M36.624 81.9838H43.8856V83.3884H36.624V87C36.624 87.2592 36.6644 87.4431 36.7453 87.5518C36.8324 87.6605 36.9693 87.7149 37.156 87.7149H43.8856V89.1194H36.7453C36.2911 89.1194 35.9551 88.9773 35.7373 88.693C35.5257 88.4004 35.4199 87.9531 35.4199 87.3512V80.0024H36.624V81.9838Z" fill="white"/>
<path d="M47.8547 80.8304H56.7404V82.3102H48.2841C48.0912 82.3102 47.9574 82.3603 47.8827 82.4606C47.8081 82.5693 47.7707 82.7574 47.7707 83.025V86.9376C47.7707 87.2051 47.8081 87.3933 47.8827 87.5019C47.9574 87.6023 48.0912 87.6524 48.2841 87.6524H56.7404V89.1197H47.8547C47.3943 89.1197 47.0551 88.9734 46.8374 88.6807C46.6258 88.3881 46.52 87.9367 46.52 87.3264V82.6362C46.52 82.0259 46.6258 81.5745 46.8374 81.2818C47.0551 80.9809 47.3943 80.8304 47.8547 80.8304Z" fill="white"/>
<path fill-rule="evenodd" clip-rule="evenodd" d="M68.7962 82.4233C69.0077 82.7075 69.1135 83.1548 69.1135 83.7651V87.3517C69.1135 87.9537 69.0077 88.4009 68.7962 88.6935C68.5908 88.9778 68.2579 89.1199 67.7975 89.1199H60.5545C60.1501 89.1199 59.8514 88.9903 59.6585 88.7312C59.4656 88.472 59.3691 88.0623 59.3691 87.5022V86.524C59.3691 85.9639 59.4656 85.5501 59.6585 85.2825C59.8452 85.0234 60.1407 84.8938 60.5452 84.8938H67.9001V84.1037C67.9001 83.8529 67.8597 83.6732 67.7788 83.5645C67.6979 83.4474 67.5672 83.3889 67.3868 83.3889H59.6398V81.9844H67.7975C68.2579 81.9844 68.5908 82.1307 68.7962 82.4233ZM67.9001 86.2105H61.0025C60.8532 86.2105 60.7443 86.2523 60.6759 86.3359C60.6136 86.4279 60.5825 86.5742 60.5825 86.7749V87.1385C60.5825 87.3392 60.6136 87.4855 60.6759 87.5774C60.7443 87.6694 60.8532 87.7154 61.0025 87.7154H67.3868C67.5672 87.7154 67.6979 87.661 67.7788 87.5524C67.8597 87.4437 67.9001 87.2597 67.9001 87.0006V86.2105Z" fill="white"/>
<path fill-rule="evenodd" clip-rule="evenodd" d="M81.0238 82.4233C81.2353 82.7075 81.3411 83.1548 81.3411 83.7651V87.3517C81.3411 87.9537 81.2353 88.4009 81.0238 88.6935C80.8184 88.9778 80.4855 89.1199 80.0251 89.1199H74.0795C73.7373 89.1199 73.479 89.0447 73.3048 88.8942C73.1306 88.7437 73.0124 88.5096 72.9501 88.1919V91.1013H71.7461V83.7651C71.7461 83.1548 71.8519 82.7075 72.0634 82.4233C72.275 82.1307 72.6079 81.9844 73.0621 81.9844H80.0251C80.4855 81.9844 80.8184 82.1307 81.0238 82.4233ZM80.1277 84.1037C80.1277 83.8529 80.0904 83.6732 80.0157 83.5645C79.9348 83.4474 79.8011 83.3889 79.6144 83.3889H73.4822C73.2893 83.3889 73.1524 83.4474 73.0715 83.5645C72.9906 83.6732 72.9501 83.8529 72.9501 84.1037V87.0006C72.9501 87.2597 72.9906 87.4437 73.0715 87.5524C73.1524 87.661 73.2893 87.7154 73.4822 87.7154H79.6144C79.8011 87.7154 79.9348 87.661 80.0157 87.5524C80.0904 87.4437 80.1277 87.2597 80.1277 87.0006V84.1037Z" fill="white"/>
<path d="M85.1772 81.9838H92.4388V83.3884H85.1772V87C85.1772 87.2592 85.2176 87.4431 85.2985 87.5518C85.3856 87.6605 85.5225 87.7149 85.7092 87.7149H92.4388V89.1194H85.2985C84.8443 89.1194 84.5083 88.9773 84.2905 88.693C84.0789 88.4004 83.9731 87.9531 83.9731 87.3512V80.0024H85.1772V81.9838Z" fill="white"/>
<path d="M103.424 81.9844H104.628V87.3517C104.628 87.9537 104.526 88.4009 104.32 88.6935C104.109 88.9778 103.773 89.1199 103.312 89.1199H96.3775C95.9295 89.1199 95.5997 88.9778 95.3881 88.6935C95.1766 88.4009 95.0708 87.9537 95.0708 87.3517V81.9844H96.2748V87.0006C96.2748 87.2597 96.3153 87.4437 96.3962 87.5524C96.4833 87.661 96.6202 87.7154 96.8069 87.7154H102.902C103.088 87.7154 103.222 87.661 103.303 87.5524C103.384 87.4437 103.424 87.2597 103.424 87.0006V81.9844Z" fill="white"/>
<path d="M108.574 81.9844H115.63V83.3889H108.994C108.807 83.3889 108.67 83.4474 108.583 83.5645C108.502 83.6732 108.462 83.8529 108.462 84.1037V89.1199H107.258V83.7651C107.258 83.1548 107.364 82.7075 107.575 82.4233C107.787 82.1307 108.12 81.9844 108.574 81.9844Z" fill="white"/>
<path fill-rule="evenodd" clip-rule="evenodd" d="M119.47 86.2105V87.0006C119.47 87.2597 119.513 87.4437 119.6 87.5524C119.681 87.661 119.812 87.7154 119.992 87.7154H127.739V89.1199H119.572C119.106 89.1199 118.77 88.9694 118.564 88.6685C118.365 88.3759 118.266 87.9202 118.266 87.3016V83.7651C118.266 83.1548 118.368 82.7075 118.574 82.4233C118.785 82.1307 119.118 81.9844 119.572 81.9844H126.815C127.226 81.9844 127.525 82.114 127.711 82.3731C127.904 82.6323 128.001 83.042 128.001 83.6021V84.5928C128.001 85.1529 127.904 85.5626 127.711 85.8218C127.525 86.0809 127.226 86.2105 126.815 86.2105H119.47ZM119.47 84.8938H126.377C126.526 84.8938 126.635 84.852 126.703 84.7684C126.765 84.6848 126.797 84.5385 126.797 84.3295V83.9909C126.797 83.7818 126.765 83.6314 126.703 83.5394C126.635 83.4391 126.526 83.3889 126.377 83.3889H119.992C119.799 83.3889 119.666 83.4516 119.591 83.577C119.51 83.7024 119.47 83.8989 119.47 84.1664V84.8938Z" fill="white"/>
<path d="M48.6901 42.9336C48.6901 51.7371 52.6195 59.3366 58.2477 62.7226L57.305 63.2367C51.7608 59.5122 47.9434 51.8123 47.9434 42.9336C47.9434 35.1585 50.8741 28.2738 55.3356 24.1856C55.877 24.0351 56.437 23.9598 57.025 23.9598C52.0595 27.6593 48.6901 34.7823 48.6901 42.9336Z" fill="white"/>
<path d="M70.5972 21.6146C71.4185 22.0159 72.2212 22.5049 72.9866 23.0693C72.9493 23.2574 72.9213 23.4079 72.9026 23.4831C72.8746 23.6837 72.8279 23.8719 72.7813 24.0725C72.0812 23.5333 71.3532 23.0693 70.5972 22.6805C70.5972 22.6805 70.5972 22.6763 70.5972 22.668C70.6065 22.3294 70.6158 21.9657 70.5972 21.6146Z" fill="white"/>
<path d="M80.9781 42.9339C80.9781 40.175 80.5861 37.5415 79.8954 35.1212C79.9265 35.0627 79.9545 35.0083 79.9794 34.9581C80.1287 34.6948 80.2781 34.444 80.4181 34.1932C80.5239 34.536 80.6234 34.8787 80.7168 35.2215C81.3701 37.6293 81.7248 40.2252 81.7248 42.9339C81.7248 51.6872 78.01 59.2993 72.5871 63.0865L71.6631 62.5849C71.6631 62.5849 71.6662 62.5849 71.6724 62.5849L71.6631 62.5724C77.1606 59.1112 80.9781 51.6119 80.9781 42.9339Z" fill="white"/>
<path d="M65.5293 60.7803V61.9591L66.2107 64.5424L66.4627 65.5206L66.78 66.7245L67.368 68.9442L67.6481 70.0101H62.5332L62.7945 69.0194L63.3826 66.7872L63.6999 65.5708L63.9519 64.5926L64.6519 61.9591V60.7803V56.8551C64.9133 56.8426 65.212 56.8175 65.5293 56.7422V60.7803Z" fill="#3988FF"/>
<path d="M44.7798 8.40973L43.6411 6.56628L43.9585 6.21514L45.0972 8.0586L46.0305 7.01774L44.9012 5.17428L45.2185 4.81061L46.3572 6.6666L46.7959 6.17752L46.9919 5.95179L47.3092 6.46596L44.4531 9.63871L44.1358 9.12454L44.3318 8.91136L44.7798 8.40973Z" fill="#3988FF"/>
<path d="M44.6982 10.0392L47.5543 6.86646L47.8717 7.38062L47.8904 8.28353L48.5904 9.96396L48.4597 10.5534L48.9077 11.2682L47.6664 12.6476L47.2183 11.9328L46.7703 11.983L45.6689 10.7415L45.0156 10.5534L44.6982 10.0392Z" fill="#3988FF"/>
<path d="M48.8228 11.9577C50.9229 15.1305 54.1524 16.861 56.4951 17.7514C56.9338 17.9144 57.5125 18.0775 58.1752 18.2656C58.1814 18.2656 58.1876 18.2656 58.1939 18.2656C58.4459 18.3408 58.7165 18.4161 58.9872 18.5038V18.554C58.9561 18.7379 58.925 18.9177 58.8939 19.0933C58.869 19.227 58.8441 19.3566 58.8192 19.482C58.813 19.5322 58.8037 19.5865 58.7912 19.645C58.5205 19.5698 58.2499 19.4945 57.9979 19.4193C57.5405 19.2939 57.1298 19.181 56.7658 19.0556C56.5791 19.0055 56.4111 18.9428 56.2525 18.8801C53.7977 17.9521 50.4002 16.1212 48.1602 12.7478L48.8228 11.9577Z" fill="#3988FF"/>
<path d="M65.5288 39.6232C65.2581 39.3598 64.9594 39.1215 64.6421 38.9209V37.6668V37.09C64.8008 37.1527 64.9688 37.2028 65.1461 37.2279C65.2768 37.2405 65.4075 37.2279 65.5288 37.1903V37.2405V37.8549V39.6232Z" fill="#3988FF"/>
<path d="M68.1694 60.7783V61.9571L70.5214 63.2362L71.5108 63.7755L72.6869 64.4151L74.7403 65.5186L82.9726 70.0081H77.867L73.3215 66.5469L71.4735 65.1424L70.4281 64.3398L69.5507 63.6752L67.292 61.9571V60.7783V56.2637V55.6743C67.2982 55.666 67.3075 55.6534 67.32 55.6367C67.5253 55.3984 67.7307 55.0975 67.936 54.7338C68.0169 54.5917 68.0947 54.437 68.1694 54.2698V54.6585V55.2981V55.9126V60.7783Z" fill="#EC193F"/>
<path d="M55.1955 3.66972L55.1582 2.67902L56.1289 2.61632L56.2222 2.60378L57.1836 2.54108L57.2209 3.54432L57.1369 4.25913L56.6703 4.29675L56.6796 4.6228L57.0903 4.59772L57.0529 4.93631L56.6983 4.9614L56.7076 5.28745L57.0063 5.27491L56.9689 5.6135L56.7169 5.62604L56.7263 5.96464L56.9316 5.9521L56.8849 6.30323L56.3809 6.34085L56.2409 6.35339L55.7369 6.37847L55.6716 6.02734L55.8676 6.0148L55.8489 5.68875L55.6062 5.70129L55.5409 5.37523L55.8396 5.35015L55.8302 5.01156L55.4755 5.03664L55.4009 4.71059L55.8116 4.6855L55.8022 4.34691L55.3355 4.38453L55.1955 3.66972Z" fill="#EC193F"/>
<path d="M55.2445 2.45287L55.1885 0.935464L57.0365 0.810059L57.0925 2.32746L56.7939 2.35254L56.7472 1.18627L56.4952 1.21135L56.5419 2.36508L56.2898 2.37762L56.2525 1.2239L56.0005 1.23644L56.0472 2.4027L55.7952 2.41524L55.7578 1.26152L55.5058 1.27406L55.5432 2.42778L55.2445 2.45287Z" fill="#EC193F"/>
<path d="M56.8393 6.74164C57.0166 9.72628 58.0527 11.8707 59.2754 13.3756C59.3127 13.919 59.3407 14.4582 59.3594 14.9933C57.726 13.3129 56.1953 10.7295 55.9619 6.82942L56.8393 6.74164Z" fill="#EC193F"/>
<path d="M67.6093 43.6611C67.5098 43.6528 67.404 43.657 67.292 43.6737V36.9269V36.2372V35.4973V34.795V34.03V33.2274C67.2982 33.194 67.3044 33.1605 67.3107 33.1271C67.516 32.2116 67.8053 31.3338 68.1694 30.5187V30.7193V32.6631V33.6162V34.6194V35.3217V36.1243V43.6235V43.7489C68.02 43.6988 67.852 43.6737 67.6653 43.6611H67.6093Z" fill="#EC193F"/>
<path d="M52.3131 70.0086H47.1982L55.1412 65.6822L57.2039 64.5661L58.408 63.914L59.416 63.3622L62.0015 61.9576V60.7788V57.443C62.2721 57.2549 62.5708 57.1295 62.8882 57.0417V60.7788V61.9576L60.4521 63.8011L59.5654 64.4908L58.492 65.3059L56.6253 66.723L52.3131 70.0086Z" fill="#65CBDF"/>
<path d="M49.5406 26.6553L49.6526 26.5174L49.6433 26.4923L49.3726 26.1035L49.5966 25.9405L49.7926 26.2289L49.8393 26.2917L50.0166 26.0534L49.9606 25.9781L49.8113 25.765L50.026 25.5894L50.1193 25.7148L50.2033 25.8277L50.3807 25.6019L50.2873 25.464L50.25 25.4138L50.4087 25.2759L50.4833 25.2257L50.8287 25.7148L50.922 25.8527L51.2674 26.3418L51.1087 26.6428L50.978 26.4547L50.7913 26.6804L50.9593 26.9312L50.8193 27.2071L50.614 26.9061L50.4273 27.1319L50.67 27.483L50.53 27.7714L50.25 27.3701L50.0633 27.5959L50.3807 28.0473L50.0726 28.6493L49.5313 29.3265L48.8686 28.3859L48.8033 28.2856L48.7099 28.1602L48.1499 27.3451L48.6913 26.6553L49.1579 26.2791L49.4753 26.7431L49.5406 26.6553Z" fill="#65CBDF"/>
<path d="M48.2997 27.8724L47.665 28.6625L47.833 28.9133L48.4677 28.1232L48.6171 28.349L48.6357 28.3615L48.5704 28.4367L48.001 29.1515L48.141 29.3522L48.169 29.4024L48.8037 28.6123L48.9717 28.8506L48.3464 29.6406L48.5144 29.8914L49.1491 29.1014L49.3544 29.3898L48.5237 30.4307L48.001 29.6782L47.2637 28.6248L48.0944 27.584L48.2997 27.8724Z" fill="#65CBDF"/>
<path d="M58.2885 22.0045C58.2232 22.3807 58.1765 22.7694 58.1672 23.1707C58.0645 23.1582 57.9618 23.1331 57.8685 23.1206C57.4578 23.0704 57.0565 23.0704 56.6645 23.0955C55.8431 23.1331 55.0684 23.2961 54.331 23.6222C53.2577 24.0862 52.259 24.8512 51.3536 25.9171L50.7749 25.0393C52.343 23.1833 54.219 22.1424 56.2818 21.9418C56.8231 21.8916 57.3738 21.8791 57.9432 21.9543C58.0552 21.9668 58.1765 21.9919 58.2885 22.0045Z" fill="#65CBDF"/>
<path d="M62.6362 38.2311C62.4215 38.2185 62.2068 38.2562 62.0015 38.3314V37.4786V34.6069V33.8795C62.1975 34.0425 62.3935 34.1429 62.5615 34.2056L62.7295 34.2557C62.7575 34.4188 62.8042 34.5692 62.8415 34.7197C62.8602 34.7699 62.8695 34.8201 62.8882 34.8702V36.814V37.4661V38.2436C62.8011 38.2353 62.717 38.2311 62.6362 38.2311Z" fill="#65CBDF"/>
<path d="M75.3118 70.009H70.1969L69.3755 68.4414L68.3115 66.4099L67.7235 65.2812L67.2475 64.3783L65.9688 61.958V60.7792V56.6283C66.2488 56.5656 66.6128 56.3649 66.8554 56.0765V60.7792V61.958L68.9182 63.9268L69.6929 64.6667L70.6449 65.5571L72.3157 67.1623L75.3118 70.009Z" fill="#67BE43"/>
<path d="M52.2843 8.23502L53.0963 7.54529L53.4883 8.39804L53.675 9.08777L53.283 9.41382L53.4136 9.70226L53.759 9.41382L53.843 9.72734L53.5443 9.99069L53.675 10.2666L53.927 10.0534L54.011 10.3794L53.8057 10.555L53.9363 10.8434L54.1043 10.693L54.1883 11.0441L53.759 11.3952L53.647 11.4955L53.2176 11.8467L53.031 11.5959L53.199 11.4454L53.0683 11.1695L52.8536 11.3451L52.6763 11.0943L52.9376 10.8811L52.807 10.6052L52.4989 10.856L52.3216 10.6052L52.6763 10.3167L52.5456 10.0283L52.1443 10.3669L51.7709 9.8402L51.3789 8.98745L52.1909 8.29772L52.2843 8.23502Z" fill="#67BE43"/>
<path d="M51.3723 8.73566L50.7749 7.44398L52.343 6.13977L52.9403 7.43144L52.6883 7.64463L52.231 6.65393L52.0163 6.8295L52.4736 7.8202L52.259 7.99577L51.8109 7.00507L51.5963 7.18063L52.0536 8.17133L51.8389 8.3469L51.3816 7.3562L51.1763 7.53177L51.6243 8.52247L51.3723 8.73566Z" fill="#67BE43"/>
<path d="M59.145 17.4146C59.1326 17.4898 59.1201 17.5651 59.1077 17.6403C57.017 16.5744 54.7955 14.9943 53.4795 12.11L54.2355 11.4955C55.3742 14.0161 57.3063 15.4457 59.2477 16.449C59.2384 16.5744 59.229 16.6998 59.2197 16.8127L59.201 16.9757C59.1886 17.076 59.1761 17.1763 59.1637 17.2767L59.145 17.4146Z" fill="#67BE43"/>
<path d="M65.9688 40.0735V39.3336V37.6658V37.0513V37.0011C66.3608 36.7378 66.6594 36.3365 66.8554 36.0229V36.5747V37.2268V41.4028C66.7746 41.2189 66.675 41.0308 66.5568 40.8385C66.3981 40.5877 66.1928 40.3243 65.9688 40.0735Z" fill="#67BE43"/>
<path d="M60.7307 68.5794L59.9747 70.009H54.8691L57.6786 67.3254L59.368 65.7202L60.3387 64.8047L61.132 64.0398L63.3255 61.958V60.7792V56.9544C63.6055 56.9167 63.9041 56.8917 64.2028 56.8666V60.7792V61.958L62.8868 64.4661L62.4014 65.3816L61.8041 66.5228L60.7307 68.5794Z" fill="#FEC30D"/>
<path d="M45.2033 15.709L46.2766 16.1856L46.1833 16.5743L45.3619 16.2107L45.2873 16.5242L46.0993 16.8879L46.0246 17.2014L45.2033 16.8377L45.1286 17.1512L45.95 17.5149L45.8659 17.8409L45.0446 17.4773L44.9699 17.7908L45.7913 18.1544L45.6979 18.5432L44.6152 18.0667L45.2033 15.709Z" fill="#FEC30D"/>
<path d="M47.6276 16.8243L47.4876 17.4137L47.721 17.5266L47.8516 16.9999L48.0663 17.1754L47.9543 17.6269L48.1877 17.7272L48.2903 17.3385L48.505 17.514L48.4303 17.8401L48.6637 17.9404L48.729 17.6896L48.9623 17.8777L48.8037 18.5173L48.757 18.6928L48.5983 19.3324L48.3277 19.2948L48.393 19.044L48.1596 18.9437L48.0756 19.2572L47.8236 19.2195L47.917 18.8308L47.6836 18.7305L47.5716 19.1819L47.3196 19.1568L47.4503 18.6301L47.2076 18.5173L47.0676 19.1192L46.5263 19.0314L45.8169 18.7179L46.1249 17.489L46.1529 17.3636L46.4516 16.1346L47.1609 16.4481L47.6276 16.8243Z" fill="#FEC30D"/>
<path d="M58.4917 21.0504C58.4606 21.1925 58.4264 21.3388 58.3891 21.4893C58.0904 21.4391 57.7637 21.389 57.3997 21.3388C57.3344 21.3263 57.269 21.3263 57.1944 21.3137C56.3543 21.1883 55.393 21.0504 54.3289 20.8497C52.7515 20.5362 50.9595 20.0847 49.0181 19.3198L49.2607 18.1786C51.6128 19.1191 53.7502 19.5831 55.533 19.8716C56.2423 19.997 56.905 20.0847 57.493 20.1725C57.9224 20.2352 58.3051 20.2854 58.6504 20.3356L58.6411 20.3857C58.6162 20.5028 58.5913 20.6198 58.5664 20.7369L58.4917 21.0504Z" fill="#FEC30D"/>
<path d="M64.2035 38.6698C63.9142 38.5067 63.6248 38.3939 63.3262 38.3186V37.9173V37.1649V36.5253V35.8732C63.3262 35.8732 63.4195 36.0488 63.5875 36.262C63.7089 36.4125 63.8582 36.588 64.0449 36.7385C64.1009 36.7761 64.1569 36.8138 64.2035 36.8514V37.3279V37.9173V38.6698Z" fill="#FEC30D"/>
<path d="M63.3359 38.8594C63.3294 38.8594 63.3262 38.8594 63.3262 38.8594V38.8334C63.3326 38.8421 63.3391 38.8508 63.3456 38.8594H63.3359Z" fill="#FEC30D"/>
<path d="M63.3262 38.8695V38.8583C63.3262 38.8583 63.3291 38.8583 63.335 38.8583L63.3262 38.8695Z" fill="#FEC30D"/>
<path d="M45.3096 42.9337C45.3096 38.4317 46.1589 34.193 47.6523 30.481L48.4924 31.6849L49.4351 30.4935L49.4911 30.5813L49.6871 30.3305C47.9977 33.9923 47.0176 38.3188 47.0176 42.9337C47.0176 51.9127 50.7138 59.7505 56.1833 63.8513L54.2046 64.9172C48.8564 60.2396 45.3096 52.1385 45.3096 42.9337Z" fill="white"/>
<path d="M69.6749 17.527C69.6749 17.527 69.6717 17.527 69.6655 17.527C71.1216 18.0161 72.503 18.7309 73.8003 19.6464C73.5763 20.4615 73.399 21.2139 73.2497 21.841C72.3536 21.1889 71.4109 20.6496 70.4309 20.2107C70.3656 19.8596 70.2816 19.4959 70.1789 19.1197C70.0762 18.7435 69.9549 18.3422 69.7962 17.8907C69.7589 17.7737 69.7184 17.6524 69.6749 17.527Z" fill="white"/>
<path d="M81.0699 33.1031C81.4744 32.4426 81.8788 31.8072 82.2833 31.1969C82.6131 32.0831 82.9086 32.9944 83.17 33.9307C83.9353 36.7398 84.3554 39.7746 84.3554 42.9348C84.3554 52.0267 80.8926 60.0401 75.6564 64.7553L73.6963 63.6894V63.6768C79.0445 59.551 82.6473 51.801 82.6473 42.9348C82.6473 39.8624 82.2179 36.9405 81.4339 34.2442C81.3219 33.8597 81.2006 33.4793 81.0699 33.1031Z" fill="white"/>
<path d="M72.0793 50.6837C71.4167 52.3767 70.6606 53.568 69.7553 54.333C69.4099 54.6214 68.9992 54.8722 68.5605 55.0979V54.5336V53.8188C68.8312 53.6683 69.0832 53.5053 69.2979 53.3297C70.0633 52.6902 70.7166 51.6493 71.3047 50.1444C71.314 50.1068 71.9673 48.4766 73.0127 46.0437C74.4314 42.7957 76.5782 38.1055 78.9303 33.8919C79.0423 33.6787 79.1636 33.4781 79.2849 33.2774C79.453 32.9848 79.621 32.6964 79.789 32.4122C80.0005 32.061 80.2152 31.7141 80.433 31.3713C80.8312 30.7443 81.2263 30.1381 81.6184 29.5529C81.7739 29.9124 81.9233 30.2719 82.0664 30.6314C81.6744 31.2333 81.2637 31.8604 80.8623 32.4999C80.6445 32.8594 80.4268 33.2231 80.209 33.591C80.041 33.8836 79.8699 34.1804 79.6956 34.4813C79.677 34.5231 79.6552 34.5649 79.6303 34.6067C75.5701 41.8677 72.1167 50.5959 72.0793 50.6837Z" fill="white"/>
<path d="M73.6408 22.1411C73.7808 21.5141 73.9675 20.7491 74.2008 19.9214C74.4622 20.1137 74.7173 20.3144 74.9662 20.5234C74.7422 21.3761 74.5555 22.1662 74.4155 22.7681C74.2662 23.4453 74.1915 23.8717 74.1822 23.8968C74.1728 23.9344 74.1635 23.9846 74.1542 24.0222C74.0982 24.3608 74.0235 24.6994 73.9395 25.038C73.1555 28.5242 71.6714 31.7095 70.2994 34.5688C70.234 34.7067 70.1687 34.8447 70.1034 34.9701C69.7393 35.735 69.3287 36.6003 68.834 37.3904V36.6756V36.4875V35.4341C69.0207 35.0704 69.198 34.6942 69.3753 34.3305C70.8687 31.2079 72.4088 27.9725 73.1741 24.3608C73.2301 24.11 73.2861 23.8717 73.3328 23.6084C73.3421 23.5833 73.3515 23.4955 73.3795 23.3701C73.4261 23.1193 73.5195 22.6804 73.6408 22.1411Z" fill="white"/>
<path d="M62.1788 39.9111C62.1788 39.9236 62.0388 40.814 62.6454 40.9394C62.7014 40.9519 62.7855 40.977 62.8881 41.0021C63.0095 41.0397 63.1588 41.0899 63.3268 41.1526C63.5975 41.2529 63.8962 41.3783 64.2042 41.5163C64.3535 41.5915 64.4997 41.6626 64.6429 41.7294C64.9975 41.9176 65.3149 42.1057 65.5296 42.2812C65.6882 42.4192 65.7816 42.5446 65.7909 42.6574C65.7256 42.7327 65.6322 42.8079 65.5296 42.8706C65.4549 42.9124 65.3771 42.9459 65.2962 42.971C65.29 42.971 65.2838 42.9668 65.2775 42.9584C65.1966 42.8915 65.1126 42.8247 65.0255 42.7578C64.9789 42.7201 64.9229 42.6825 64.8669 42.6449C64.8357 42.6198 64.7984 42.5947 64.7549 42.5697C64.7175 42.532 64.6802 42.507 64.6429 42.4819C64.4935 42.3816 64.3442 42.2938 64.2042 42.2185C63.8775 42.0555 63.5881 41.9426 63.3268 41.8799C63.165 41.8381 63.0188 41.8089 62.8881 41.7921C62.4214 41.7545 62.1414 41.8423 62.1414 41.8423C62.0916 41.8256 62.045 41.7963 62.0014 41.7545C61.7494 41.5413 61.5814 41.0648 61.6654 40.651C61.7121 40.4127 61.8427 40.1995 62.0014 40.0365C62.0574 39.9863 62.1165 39.9445 62.1788 39.9111Z" fill="white"/>
<path d="M58.8368 52.2023C58.5941 51.663 58.5661 50.8855 59.1075 50.409C59.2195 50.2961 59.4808 50.1707 59.8075 50.0704C59.7422 50.409 59.8635 50.8228 60.0688 51.0611C60.3302 51.3495 60.6849 51.4373 61.0302 51.4875C61.2729 51.5251 61.5156 51.5376 61.7582 51.5376C61.2915 51.663 60.8809 51.9765 60.5822 52.2273C60.4422 52.3527 60.1715 52.591 60.1715 52.591C59.5555 53.0926 59.0795 52.7164 58.8368 52.2023Z" fill="white"/>
<path d="M60.4331 46.4449C60.3678 46.5452 60.3305 46.658 60.3398 46.8085C60.3678 47.0468 60.5545 47.1973 60.7318 47.2976C61.6932 47.8118 62.7945 47.6111 63.7839 48.0626C63.8959 48.1127 64.0266 48.2005 64.1106 48.3134C64.1013 48.3259 64.0826 48.351 64.0733 48.3636C63.8586 48.5391 63.6066 48.5893 63.3266 48.5893C63.1835 48.5893 63.0372 48.5767 62.8879 48.5517C62.807 48.5433 62.723 48.5308 62.6359 48.514C62.4305 48.489 62.2159 48.4639 62.0012 48.4513C61.8332 48.4388 61.6558 48.4388 61.4785 48.4639C61.2358 48.5015 61.0118 48.5767 60.8065 48.6394C60.6571 48.6896 60.5078 48.7398 60.3491 48.7774C60.1625 48.815 59.8171 48.8526 59.6118 48.6269C59.3411 48.351 59.3598 47.7114 59.5371 47.2725C59.7051 46.8838 59.9851 46.5577 60.2745 46.2693C60.3211 46.332 60.3771 46.3947 60.4331 46.4449Z" fill="white"/>
<path d="M60.7778 44.7142C60.8338 44.2376 61.0205 43.7862 61.3472 43.3222C61.3907 43.2553 61.4405 43.1884 61.4965 43.1215C61.8325 43.6733 62.3739 43.9868 62.9059 44.1498C63.5779 44.338 64.2873 44.3756 64.9033 44.7769C64.9157 44.7852 64.9313 44.7936 64.95 44.8019C64.9406 44.8396 64.9313 44.8897 64.922 44.9274C64.894 45.0277 64.8193 45.2283 64.67 45.3036C64.6606 45.3161 64.6513 45.3161 64.642 45.3161C64.5206 45.3663 64.3713 45.3537 64.2033 45.3036C64.0975 45.2701 63.9855 45.2325 63.8673 45.1907C63.7615 45.1489 63.6526 45.1113 63.5406 45.0778C63.4753 45.0528 63.4006 45.0528 63.3259 45.0277C63.1766 45.0026 63.0303 44.9859 62.8872 44.9775C62.5886 44.965 62.2899 45.0026 62.0005 45.1029C61.8699 45.1405 61.7392 45.1907 61.6178 45.2534L61.4685 45.3287C61.2725 45.429 61.0765 45.5418 60.9552 45.4917C60.8245 45.4415 60.7311 45.0653 60.7778 44.7142Z" fill="white"/>
<path d="M64.9039 30.4553C64.6519 31.2077 64.4746 32.1984 64.9039 32.8003C65.1652 33.164 65.5479 33.2518 65.9213 33.2769C65.8373 33.7785 65.7626 34.2801 65.7159 34.7817C65.6973 35.0702 65.6693 35.3837 65.5666 35.4966C65.5573 35.5091 65.5479 35.5091 65.5293 35.5216C65.4981 35.5384 65.4639 35.5509 65.4266 35.5593C65.3613 35.5718 65.2679 35.5593 65.1746 35.5342C64.9786 35.4715 64.8012 35.3461 64.6426 35.183C64.4652 34.9949 64.3252 34.7441 64.2039 34.4682C64.1541 34.3512 64.1137 34.23 64.0825 34.1046C63.9892 33.791 63.9332 33.465 63.9332 33.1515C63.9239 32.6373 64.0265 32.0981 64.2039 31.5588C64.3159 31.2202 64.4652 30.8942 64.6426 30.5807C64.7452 30.3926 64.8479 30.2295 64.9692 30.054C65.0252 29.9704 65.0844 29.8868 65.1466 29.8032C65.0626 30.0164 64.9786 30.2295 64.9039 30.4553Z" fill="white"/>
<path d="M60.6841 13.1618C60.6841 12.8859 60.6747 12.61 60.6747 12.3216C60.9174 13.5882 61.1227 14.8799 61.2628 16.1715C61.4308 17.6262 61.5334 19.1436 61.2908 20.5858C61.1134 21.6768 60.7494 22.7051 60.7027 23.8212C60.6654 24.9248 61.0854 26.1914 61.8974 26.4171C62.0841 26.4673 62.2895 26.4548 62.4668 26.5551C62.9428 26.7933 63.0922 27.5959 63.4562 28.085C63.9975 28.8124 64.8656 28.6619 65.6122 28.3358C65.5811 28.3609 65.5531 28.386 65.5282 28.4111C65.2482 28.6619 64.9496 28.9252 64.6415 29.2011C64.4922 29.3516 64.3522 29.4896 64.2029 29.6526C63.8482 30.0413 63.5308 30.4928 63.3255 31.0571C63.1575 31.496 63.0642 32.0102 63.0828 32.6121C63.0828 32.6121 62.9988 32.5745 62.8868 32.4993C62.6535 32.3488 62.2801 31.9977 62.1495 31.2452C62.1121 31.0864 62.0748 30.9234 62.0374 30.7561C62.025 30.706 62.0126 30.6558 62.0001 30.6057C61.8788 30.0539 61.7388 29.5021 61.4494 29.013C61.1974 28.5866 60.8707 28.2982 60.5627 28.0223C60.4632 27.9387 60.3636 27.8509 60.264 27.759C60.012 27.5082 59.704 27.1319 59.6947 26.7056C59.6947 26.6052 59.704 26.4673 59.7227 26.3293C59.732 26.2039 59.7507 26.0785 59.7507 25.9531C59.7787 25.4139 59.676 24.9248 59.5734 24.4483C59.5174 24.1724 59.4614 23.909 59.4334 23.6582C59.368 22.9685 59.536 22.2537 59.7134 21.4887C59.7134 21.4803 59.7165 21.472 59.7227 21.4636L59.7694 21.2379C59.816 21.0372 59.8534 20.8366 59.9 20.636C59.9809 20.2597 60.0556 19.8793 60.124 19.4948C60.1427 19.3861 60.1614 19.2774 60.18 19.1687C60.1987 19.0684 60.2143 18.9681 60.2267 18.8677C60.2703 18.6002 60.3107 18.3327 60.3481 18.0651C60.3605 17.9397 60.3761 17.8185 60.3947 17.7015C60.4134 17.5259 60.4414 17.3503 60.4601 17.1748C60.4694 17.0243 60.4881 16.8613 60.4974 16.7108C60.5223 16.4683 60.5441 16.2301 60.5627 15.996C60.5814 15.7786 60.5969 15.5654 60.6094 15.3564C60.6343 15.0053 60.6498 14.6583 60.6561 14.3155C60.6623 14.257 60.6654 14.1985 60.6654 14.14C60.6778 13.8139 60.6841 13.4879 60.6841 13.1618Z" fill="white"/>
<path d="M58.5631 23.8083C58.5444 23.6202 58.5444 23.4321 58.5444 23.244C58.5538 22.8427 58.6004 22.454 58.6751 22.0777C58.7062 21.9022 58.7404 21.7266 58.7778 21.551C58.8027 21.434 58.8276 21.3211 58.8524 21.2124C58.8649 21.179 58.8742 21.1456 58.8804 21.1121L58.9271 20.8864C58.9644 20.7275 59.0018 20.5687 59.0391 20.4099C59.0391 20.3931 59.0422 20.3764 59.0484 20.3597C59.0858 20.159 59.1231 19.9584 59.1605 19.7577C59.1667 19.741 59.1729 19.7243 59.1791 19.7076C59.1853 19.6741 59.1916 19.6407 59.1978 19.6073C59.2227 19.4819 59.2445 19.3523 59.2631 19.2185C59.3005 19.0346 59.3316 18.8507 59.3565 18.6667C59.3689 18.5915 59.3814 18.5204 59.3938 18.4535C59.4436 18.1358 59.4871 17.8182 59.5245 17.5005C59.5431 17.35 59.5618 17.1995 59.5805 17.049C59.5867 16.9988 59.5929 16.9445 59.5991 16.886C59.6427 16.493 59.6769 16.1001 59.7018 15.7072C59.7205 15.4564 59.7391 15.2055 59.7578 14.9547C59.764 14.8377 59.7671 14.7206 59.7671 14.6036C59.7796 14.311 59.7889 14.0184 59.7951 13.7258C59.8076 13.291 59.8076 12.8563 59.7951 12.4215C59.7889 11.9199 59.7734 11.4183 59.7485 10.9167C59.8729 11.0588 60.0005 11.1926 60.1312 11.318C60.3116 11.4852 60.489 11.644 60.6632 11.7945C60.6632 11.853 60.6632 11.9116 60.6632 11.9701C60.6725 12.083 60.6632 12.2084 60.6725 12.3212C60.6725 12.6097 60.6818 12.8855 60.6818 13.1614C60.6818 13.4875 60.6756 13.8135 60.6632 14.1396C60.6632 14.1981 60.6601 14.2566 60.6538 14.3152C60.6476 14.6579 60.6321 15.0049 60.6072 15.356C60.5947 15.565 60.5792 15.7782 60.5605 15.9956C60.5418 16.2297 60.5201 16.468 60.4952 16.7104C60.4858 16.8609 60.4672 17.0239 60.4578 17.1744C60.4392 17.35 60.4112 17.5255 60.3925 17.7011C60.3738 17.8181 60.3583 17.9394 60.3458 18.0648C60.3085 18.3323 60.2681 18.5998 60.2245 18.8674C60.2121 18.9677 60.1965 19.068 60.1778 19.1683C60.1592 19.277 60.1405 19.3857 60.1218 19.4944C60.0534 19.879 59.9787 20.2594 59.8978 20.6356C59.8511 20.8362 59.8138 21.0369 59.7671 21.2375L59.7205 21.4633C59.7143 21.4716 59.7111 21.48 59.7111 21.4883C59.5338 22.2533 59.3658 22.9681 59.4311 23.6578C59.4591 23.9087 59.5151 24.172 59.5711 24.4479C59.6738 24.9244 59.7765 25.4135 59.7485 25.9528C59.7485 26.0782 59.7298 26.2036 59.7205 26.329C59.7018 26.4669 59.6925 26.6049 59.6925 26.7052C59.7018 27.1316 60.0098 27.5078 60.2618 27.7586C60.3614 27.8506 60.4609 27.9383 60.5605 28.0219C60.8685 28.2978 61.1952 28.5863 61.4472 29.0126C61.7365 29.5017 61.8766 30.0535 61.9979 30.6053C62.0103 30.6555 62.0228 30.7056 62.0352 30.7558C62.0726 30.923 62.1099 31.086 62.1472 31.2449C62.2779 31.9973 62.6513 32.3484 62.8846 32.4989C62.9966 32.5742 63.0806 32.6118 63.0806 32.6118C63.0619 32.0098 63.1553 31.4957 63.3233 31.0568C63.5286 30.4924 63.846 30.041 64.2006 29.6522C64.35 29.4892 64.49 29.3512 64.6393 29.2008C64.9473 28.9249 65.246 28.6615 65.526 28.4107C65.5509 28.3856 65.5789 28.3605 65.61 28.3355C65.7314 28.2101 65.8527 28.0972 65.9647 27.9718C66.1514 27.7711 66.3007 27.5579 66.3941 27.3197C66.3194 27.7962 66.1607 28.1975 65.9647 28.5612C65.834 28.812 65.6754 29.0503 65.526 29.2635C65.4389 29.3889 65.3549 29.5101 65.274 29.6271C65.2305 29.6857 65.1869 29.7442 65.1433 29.8027C65.0811 29.8863 65.022 29.9699 64.966 30.0535C64.8447 30.2291 64.742 30.3921 64.6393 30.5802C64.462 30.8937 64.3126 31.2198 64.2006 31.5584C64.0233 32.0976 63.9206 32.6369 63.93 33.151C63.93 33.4645 63.986 33.7906 64.0793 34.1041C64.1104 34.2295 64.1509 34.3507 64.2006 34.4678C64.322 34.7437 64.462 34.9945 64.6393 35.1826C64.798 35.3456 64.9753 35.471 65.1713 35.5337C65.2647 35.5588 65.358 35.5713 65.4234 35.5588C65.4607 35.5504 65.4949 35.5379 65.526 35.5212C65.5447 35.5086 65.554 35.5086 65.5634 35.4961C65.666 35.3832 65.694 35.0697 65.7127 34.7813C65.7594 34.2797 65.834 33.778 65.918 33.2764C65.9367 33.1886 65.946 33.1009 65.9647 33.0131C66.17 31.9847 66.4687 30.9941 66.8514 30.0661C66.9821 29.7275 67.1314 29.4014 67.2901 29.0879C67.4021 28.8622 67.5203 28.6406 67.6448 28.4232C67.7443 28.2477 67.8439 28.0763 67.9434 27.9091C68.0181 27.7837 68.0928 27.6583 68.1675 27.5329C68.3261 27.257 68.4755 26.9811 68.5968 26.6927C68.6248 26.6425 68.6528 26.5798 68.6715 26.5296C68.7275 26.3666 68.7835 26.2036 68.8301 26.028C68.9328 25.6142 69.0168 25.1753 69.0915 24.6862C69.2408 23.6955 69.3902 22.6421 69.3248 21.6388C69.2688 20.6857 69.0355 19.7954 68.7368 18.8925C68.6155 18.5037 68.4848 18.1275 68.3448 17.7387C68.3324 17.7053 68.3168 17.6677 68.2981 17.6259C68.1488 17.212 67.9994 16.7856 67.8594 16.3467C67.8034 16.1586 67.7381 15.9705 67.6821 15.7824C67.4954 15.1679 67.3461 14.5284 67.2154 13.9013C67.3834 13.9264 67.5608 13.9515 67.7288 13.9891C67.8781 14.0267 68.0181 14.0644 68.1675 14.0894C68.2701 14.5158 68.3728 14.9422 68.4941 15.3435C68.6248 15.7699 68.7741 16.2088 68.9235 16.6352C68.9795 16.794 69.0355 16.9529 69.0915 17.1117C69.1226 17.1953 69.1506 17.2789 69.1755 17.3625C69.2688 17.6133 69.3559 17.86 69.4368 18.1024C69.5768 18.5037 69.6982 18.8925 69.8102 19.3063C69.8724 19.5404 69.9315 19.7828 69.9875 20.0336C70.0809 20.4851 70.1555 20.9491 70.1929 21.4256C70.1991 21.4591 70.2022 21.4967 70.2022 21.5385C70.2115 21.7141 70.2115 21.8896 70.2115 22.0652C70.2209 23.0434 70.0902 24.0215 69.9502 24.937C69.8289 25.6643 69.7075 26.3917 69.4555 27.0563C69.2782 27.5203 69.0542 27.9342 68.8301 28.3229C68.7617 28.4316 68.6933 28.5445 68.6248 28.6615C68.5252 28.8204 68.4288 28.9792 68.3355 29.1381C68.2795 29.2384 68.2235 29.3512 68.1675 29.4516C67.8221 30.1037 67.5234 30.7934 67.2901 31.5207C67.2714 31.5709 67.2528 31.6253 67.2341 31.6838C67.1719 31.8677 67.1159 32.0516 67.0661 32.2356C66.9852 32.5365 66.9136 32.8417 66.8514 33.151C66.8265 33.2513 66.8047 33.3517 66.7861 33.452C66.7363 33.7279 66.6927 34.008 66.6554 34.2922C66.6274 34.4929 66.6087 34.6935 66.5901 34.9067C66.5714 35.0823 66.5527 35.2829 66.5154 35.4836C66.5154 35.4836 66.4874 35.5713 66.4314 35.6967C66.4252 35.7051 66.4221 35.7093 66.4221 35.7093C66.3785 35.8012 66.3349 35.8848 66.2914 35.9601C66.2789 35.9768 66.2696 35.9935 66.2634 36.0103C66.2323 36.0521 66.2012 36.0897 66.1701 36.1231C66.1701 36.1315 66.1701 36.1357 66.1701 36.1357C66.1576 36.1524 66.1452 36.1649 66.1327 36.1733C66.0954 36.2109 65.8434 36.4993 65.386 36.5746C65.1153 36.5997 64.8633 36.537 64.6487 36.4366C64.6487 36.4366 64.6455 36.4366 64.6393 36.4366C64.6331 36.4366 64.6269 36.4325 64.6207 36.4241C64.462 36.3488 64.322 36.2485 64.2006 36.1482C64.2006 36.1482 64.2006 36.144 64.2006 36.1357C64.1882 36.1357 64.1789 36.1315 64.1726 36.1231C64.0886 36.0353 64.0046 35.9601 63.9393 35.8848C63.902 35.8347 63.8646 35.7845 63.8273 35.7344C63.734 35.6006 63.6468 35.4585 63.566 35.308C63.5535 35.2913 63.5442 35.2704 63.538 35.2453C63.4571 35.0864 63.3855 34.9192 63.3233 34.7437C63.2206 34.4427 63.1366 34.1166 63.0899 33.778L62.9219 33.7153L62.8846 33.7028L62.6699 33.6401C62.6699 33.6317 62.6668 33.6276 62.6606 33.6276C62.4179 33.5523 62.1939 33.3767 61.9979 33.1385C61.7179 32.7873 61.4845 32.2857 61.3165 31.6211C61.273 31.4455 61.2325 31.2699 61.1952 31.0944C61.0832 30.5802 60.9712 30.1037 60.7658 29.7525C60.5978 29.4641 60.3458 29.2384 60.0752 29.0126C59.9694 28.9123 59.8605 28.812 59.7485 28.7117C59.1605 28.1348 58.8431 27.4702 58.8151 26.7554C58.8058 26.5422 58.8338 26.329 58.8524 26.1534C58.8618 26.0656 58.8711 25.9653 58.8804 25.8775C58.8898 25.5389 58.8151 25.1627 58.7311 24.774C58.6658 24.473 58.6004 24.1595 58.5631 23.8083Z" fill="white"/>
<path d="M67.881 51.8754C67.685 52.1136 67.489 52.3644 67.293 52.6403C67.1436 52.8493 66.9974 53.0667 66.8543 53.2924C66.7329 53.468 66.6209 53.6436 66.5089 53.8317L66.4623 53.9069C66.3036 54.1954 66.1449 54.4587 65.9676 54.6343C65.9489 54.6594 65.9396 54.6844 65.9209 54.697C65.7996 54.7973 65.6689 54.8725 65.5289 54.9227C65.2489 55.0356 64.9409 55.0607 64.6422 55.0732C64.5924 55.0732 64.5458 55.0774 64.5022 55.0857C64.4026 55.0857 64.3031 55.0899 64.2035 55.0983C63.9328 55.1108 63.6342 55.1234 63.3262 55.1735C63.183 55.1902 63.0368 55.2153 62.8875 55.2488C62.5888 55.3115 62.2901 55.3992 62.0008 55.5372C61.7768 55.6375 61.5528 55.7629 61.3287 55.9134C61.2665 55.9636 61.2043 56.0137 61.1421 56.0639C60.9461 56.2144 60.7687 56.3523 60.6007 56.3774C60.414 56.4025 60.2647 56.2645 60.1714 56.1266C59.9754 55.8507 59.8727 55.4243 59.9194 55.0607C59.9318 54.9687 59.9505 54.8767 59.9754 54.7848C60.0874 54.8725 60.2087 54.9227 60.3394 54.9603C60.5447 54.998 60.7594 54.9854 60.9554 54.9227C61.3754 54.7973 61.7581 54.5089 62.1781 54.3584C63.0275 54.07 63.9235 54.3835 64.7915 54.2204C65.2956 54.1201 65.7529 53.8693 66.1916 53.5307C66.7796 53.0793 67.3303 52.4773 67.881 51.8754Z" fill="white"/>
<path fill-rule="evenodd" clip-rule="evenodd" d="M60.5552 57.5555C60.1725 57.5555 59.8179 57.3423 59.5285 56.941C59.1458 56.3767 58.9591 55.5867 59.0525 54.8593C59.0992 54.5458 59.1832 54.2448 59.2952 53.9564C58.7818 53.831 58.3618 53.3795 58.1005 52.8278C57.6244 51.812 57.6431 50.282 58.6138 49.4418C58.6791 49.3791 58.7631 49.3164 58.8472 49.2537C58.4271 48.5389 58.4551 47.4604 58.7725 46.6954C59.0525 46.0308 59.4912 45.5668 59.9019 45.1906C59.8832 44.9649 59.8832 44.7517 59.9112 44.5385C60.0325 43.4475 60.5645 42.6198 61.1152 42.0053C60.9566 41.6667 60.8726 41.2779 60.8726 40.8892C60.8663 40.7136 60.8819 40.5422 60.9192 40.375C61.0592 39.6728 61.4886 39.1084 62.0019 38.8702C62.1979 38.7824 62.4033 38.7322 62.618 38.7448C62.702 38.7448 62.7953 38.7698 62.8886 38.7824C63.0317 38.7907 63.178 38.8158 63.3273 38.8576C63.3273 38.8576 63.3304 38.8576 63.3366 38.8576C63.626 38.9454 63.9247 39.0583 64.2047 39.2213C64.354 39.3133 64.5002 39.4094 64.6434 39.5097C64.9607 39.7229 65.2594 39.9863 65.5301 40.2622C65.6918 40.4294 65.8381 40.6008 65.9687 40.7763C66.0714 40.9017 66.1741 41.0397 66.2581 41.1776C66.5848 41.7043 66.7341 42.1683 66.6781 42.5696C66.6408 43.0587 66.3514 43.4725 65.9687 43.7359C65.9003 43.786 65.8287 43.832 65.7541 43.8738C65.8194 44.1497 65.8474 44.4382 65.8381 44.7391C65.8847 44.7015 65.9221 44.689 65.9687 44.6639C66.0434 44.6137 66.1181 44.5886 66.1927 44.551C66.4261 44.4256 66.6501 44.3378 66.8554 44.2751C67.011 44.2333 67.1572 44.2041 67.2941 44.1873C67.4061 44.179 67.5088 44.1748 67.6021 44.1748C67.627 44.1748 67.6519 44.1748 67.6768 44.1748C67.8728 44.1873 68.0315 44.225 68.1715 44.2751C68.2275 44.3002 68.2648 44.3253 68.3115 44.3378C68.3177 44.3378 68.3239 44.342 68.3302 44.3504C68.5355 44.4507 68.6475 44.551 68.6475 44.551C68.4888 44.5636 68.3302 44.5886 68.1715 44.6263C67.8728 44.689 67.5741 44.8018 67.2941 44.9649C67.1386 45.0485 66.9923 45.1446 66.8554 45.2533C66.5288 45.4916 66.2301 45.7925 65.9687 46.1437C65.9221 46.2189 65.8661 46.2816 65.8287 46.3443C65.8287 46.3819 65.8381 46.4196 65.8381 46.4572C65.8287 46.8836 65.6981 47.2347 65.6047 47.498C65.5798 47.5649 65.5549 47.636 65.5301 47.7112C65.3154 48.2881 65.054 48.8399 64.6434 49.2412C64.634 49.2537 64.6154 49.2788 64.606 49.2913C64.4505 49.492 64.3167 49.7512 64.2047 50.0688C64.0367 50.537 63.9184 51.139 63.85 51.8747L63.822 52.1631L63.626 52.3136C63.5264 52.3888 63.4269 52.4474 63.3273 52.4892C63.178 52.5519 63.0286 52.5769 62.8886 52.602C62.7393 52.6146 62.59 52.6271 62.4593 52.6396C62.2913 52.6396 62.1419 52.6522 62.0019 52.6773C61.9833 52.6898 61.9646 52.6898 61.9459 52.6898C61.6846 52.7525 61.4139 52.9155 61.0592 53.2165C60.4899 53.7056 60.1259 54.2323 59.9765 54.7841C59.9516 54.876 59.933 54.968 59.9205 55.06C59.8739 55.4236 59.9765 55.85 60.1725 56.1259C60.2659 56.2639 60.4152 56.4018 60.6019 56.3767C60.7699 56.3516 60.9472 56.2137 61.1432 56.0632C61.2055 56.0131 61.2677 55.9629 61.3299 55.9127C61.5539 55.7622 61.7779 55.6368 62.0019 55.5365C62.2913 55.3986 62.59 55.3108 62.8886 55.2481C63.038 55.2146 63.1842 55.1896 63.3273 55.1728C63.6353 55.1227 63.934 55.1101 64.2047 55.0976C64.3042 55.0892 64.4038 55.0851 64.5034 55.0851C64.5469 55.0767 64.5936 55.0725 64.6434 55.0725C64.942 55.06 65.2501 55.0349 65.5301 54.922C65.6701 54.8719 65.8007 54.7966 65.9221 54.6963C65.9407 54.6838 65.9501 54.6587 65.9687 54.6336C66.1461 54.458 66.3048 54.1947 66.4634 53.9062L66.5101 53.831C66.6221 53.6429 66.7341 53.4673 66.8554 53.2918C66.9986 53.066 67.1448 52.8487 67.2941 52.6396C67.4901 52.3638 67.6861 52.113 67.8821 51.8747C67.9755 51.7493 68.0782 51.6239 68.1715 51.511C69.1795 50.3573 70.0196 49.8055 70.5982 49.5296C71.1116 49.2913 71.4103 49.2788 71.4103 49.2788C71.1303 49.5296 70.8596 49.7888 70.5982 50.0563C69.8702 50.7837 69.1982 51.5988 68.5635 52.4641C68.4328 52.6522 68.3022 52.8278 68.1715 53.0159C67.5461 53.7934 67.0981 55.6118 65.9687 56.0256C65.8941 56.0381 65.8194 56.0632 65.7447 56.0758C65.6701 56.1008 65.6047 56.1134 65.5301 56.1385C65.222 56.2137 64.9234 56.2388 64.6434 56.2513C64.606 56.2513 64.5656 56.2555 64.522 56.2639C64.4162 56.2639 64.3105 56.268 64.2047 56.2764C63.906 56.2889 63.6073 56.314 63.3273 56.3516C63.178 56.3767 63.0317 56.406 62.8886 56.4394C62.5713 56.5147 62.2819 56.6275 62.0019 56.7906C61.921 56.8407 61.837 56.8951 61.7499 56.9536C61.6939 56.9954 61.6379 57.0372 61.5819 57.079C61.3299 57.2796 61.0499 57.4928 60.7045 57.5555C60.6548 57.5555 60.605 57.5555 60.5552 57.5555ZM63.3553 49.7553C63.3429 49.7553 63.3335 49.7553 63.3273 49.7553C63.178 49.7553 63.0317 49.747 62.8886 49.7303C62.7704 49.7219 62.6553 49.7094 62.5433 49.6926C62.3566 49.6675 62.1793 49.6425 62.0019 49.6299C61.8526 49.6174 61.7126 49.6174 61.5726 49.6425C61.3859 49.6675 61.2086 49.7177 61.0126 49.793C60.8352 49.8431 60.6672 49.9058 60.4899 49.9434C60.353 49.9685 60.2192 49.9811 60.0885 49.9811C59.989 50.0061 59.8956 50.0354 59.8085 50.0688C59.4818 50.1692 59.2205 50.2946 59.1085 50.4074C58.5671 50.884 58.5951 51.6615 58.8378 52.2007C59.0805 52.7149 59.5565 53.0911 60.1725 52.5895C60.1725 52.5895 60.4432 52.3512 60.5832 52.2258C60.8819 51.975 61.2926 51.6615 61.7593 51.5361C61.7717 51.5361 61.781 51.5361 61.7873 51.5361C61.8619 51.511 61.9366 51.511 62.0019 51.4985C62.145 51.4817 62.2851 51.4692 62.4219 51.4608C62.5993 51.4483 62.7486 51.4358 62.8886 51.4107C62.926 51.3981 62.9726 51.3981 63.0193 51.3856C63.0846 50.8087 63.1966 50.3071 63.3273 49.8557C63.3366 49.8306 63.346 49.793 63.3553 49.7553ZM64.9607 46.4446C64.9607 46.4363 64.9607 46.4279 64.9607 46.4196C64.8487 46.4697 64.746 46.4948 64.6434 46.5073C64.494 46.5324 64.354 46.5324 64.2047 46.4948C64.0087 46.4697 63.8127 46.3945 63.6353 46.3318C63.542 46.29 63.4455 46.2565 63.346 46.2315C63.3398 46.2231 63.3335 46.2189 63.3273 46.2189C63.178 46.1813 63.038 46.1562 62.8886 46.1562C62.59 46.1437 62.2913 46.1938 62.0019 46.3192C61.9739 46.3318 61.9459 46.3443 61.9273 46.3569L61.7873 46.4196C61.5726 46.545 61.3112 46.6829 61.0219 46.6829C60.9223 46.6829 60.8166 46.662 60.7045 46.6202C60.6019 46.57 60.5179 46.5073 60.4339 46.4446C60.3779 46.3945 60.3219 46.3318 60.2752 46.2691C59.9859 46.5575 59.7058 46.8836 59.5378 47.2723C59.3605 47.7112 59.3418 48.3508 59.6125 48.6267C59.8178 48.8524 60.1632 48.8148 60.3499 48.7772C60.5085 48.7396 60.6579 48.6894 60.8072 48.6392C61.0126 48.5765 61.2366 48.5013 61.4792 48.4637C61.6566 48.4386 61.8339 48.4386 62.0019 48.4511C62.2166 48.4637 62.4313 48.4887 62.6366 48.5138C62.7237 48.5305 62.8077 48.5431 62.8886 48.5514C63.038 48.5765 63.1842 48.5891 63.3273 48.5891C63.6073 48.5891 63.8593 48.5389 64.074 48.3633C64.0833 48.3508 64.102 48.3257 64.1113 48.3132C64.1425 48.2797 64.1736 48.2463 64.2047 48.2129C64.382 48.0122 64.522 47.7489 64.6434 47.4353C64.7056 47.2932 64.7647 47.1427 64.8207 46.9839C64.886 46.8083 64.9607 46.5951 64.9607 46.4446ZM60.9566 45.4916C61.0779 45.5417 61.2739 45.4289 61.4699 45.3285L61.6192 45.2533C61.7406 45.1906 61.8713 45.1404 62.0019 45.1028C62.2913 45.0025 62.59 44.9649 62.8886 44.9774C63.0317 44.9858 63.178 45.0025 63.3273 45.0276C63.402 45.0526 63.4767 45.0526 63.542 45.0777C63.654 45.1112 63.7629 45.1488 63.8687 45.1906C63.9869 45.2324 64.0989 45.27 64.2047 45.3035C64.3727 45.3536 64.522 45.3662 64.6434 45.316C64.6527 45.316 64.662 45.316 64.6714 45.3035C64.8207 45.2282 64.8954 45.0276 64.9234 44.9272C64.9327 44.8896 64.942 44.8395 64.9514 44.8018C64.9887 44.5761 64.97 44.3128 64.886 44.1246C64.8114 43.9992 64.7274 43.8738 64.6434 43.7735C64.5065 43.5896 64.3602 43.4391 64.2047 43.3221C63.9247 43.1089 63.626 42.9835 63.3273 42.9082C63.2278 42.8831 63.1282 42.8622 63.0286 42.8455C62.9789 42.8372 62.9322 42.833 62.8886 42.833C62.5433 42.7954 62.2259 42.8204 62.0019 42.8581C61.7873 42.8831 61.6566 42.9333 61.6566 42.9333C61.6006 42.9918 61.5477 43.0545 61.4979 43.1214C61.4419 43.1883 61.3921 43.2552 61.3486 43.3221C61.0219 43.7861 60.8352 44.2375 60.7792 44.714C60.7325 45.0652 60.8259 45.4414 60.9566 45.4916ZM62.5993 39.7982C62.4593 39.7856 62.3099 39.8232 62.1793 39.911C62.117 39.9445 62.0579 39.9863 62.0019 40.0364C61.8433 40.1995 61.7126 40.4127 61.6659 40.6509C61.5819 41.0648 61.7499 41.5413 62.0019 41.7545C62.0455 41.7963 62.0922 41.8256 62.1419 41.8423C62.1419 41.8423 62.4219 41.7545 62.8886 41.7921C63.0193 41.8088 63.1655 41.8381 63.3273 41.8799C63.5887 41.9426 63.878 42.0555 64.2047 42.2185C64.3447 42.2937 64.494 42.3815 64.6434 42.4818C64.6807 42.5069 64.718 42.532 64.7554 42.5696C64.7989 42.5947 64.8363 42.6198 64.8674 42.6449C64.9234 42.6825 64.9794 42.7201 65.026 42.7577C65.1132 42.8246 65.1972 42.8915 65.278 42.9584C65.2843 42.9667 65.2905 42.9709 65.2967 42.9709C65.3776 42.9458 65.4554 42.9124 65.5301 42.8706C65.6327 42.8079 65.7261 42.7326 65.7914 42.6574C65.8567 42.5696 65.9034 42.4944 65.9127 42.4317C65.9034 42.2561 65.7634 41.9677 65.5301 41.6542C65.3061 41.3407 65.0074 41.0021 64.6434 40.7011C64.5065 40.584 64.3602 40.4754 64.2047 40.375C63.9247 40.1744 63.6353 40.0239 63.3273 39.9236C63.178 39.8734 63.038 39.8358 62.8886 39.8107C62.7953 39.8023 62.6988 39.7982 62.5993 39.7982Z" fill="white"/>
</svg>
